<svg width="520" height="249" viewBox="0 0 520 249" fill="none" xmlns="http://www.w3.org/2000/svg">
<path d="M275.018 6.22807C256.629 29.9151 253.36 36.2453 252.542 50.8456L252.031 60.3408L248.456 54.9295C243.552 47.7826 232.621 37.1642 223.324 30.7319C219.136 27.8732 215.049 25.3207 214.334 25.0144C213.312 24.606 211.882 26.4438 209.635 31.3445C206.774 37.5726 205.446 42.7797 203.709 54.419L203.198 58.2988L199.01 51.8665C192.778 42.2692 178.578 28.5879 170.609 24.7081C162.538 20.7262 153.855 19.2968 152.935 21.8493C149.36 31.1404 149.564 66.8752 153.242 79.6376C156.511 90.8685 156.511 91.0728 151.709 92.2979C143.332 94.2378 122.798 88.7245 101.139 78.5145C88.9823 72.6948 86.8369 72.7969 84.1807 79.2292C77.6424 94.9525 108.086 129.462 145.58 148.759C149.768 150.903 153.242 152.843 153.242 153.149C153.242 153.456 149.666 154.681 145.375 155.804L137.611 157.948L124.228 155.6C116.872 154.272 104.204 152.026 96.0314 150.495C82.9548 148.146 79.0727 147.84 62.8291 148.044C26.0511 148.555 17.6739 148.555 8.88802 147.738C3.88212 147.227 0 147.33 0 147.84C0 148.248 7.55992 149.269 16.7544 150.086C29.9332 151.107 35.8585 151.107 43.9293 150.188C56.2908 148.861 72.3301 148.759 82.7505 150.086C90.2083 151.107 128.723 157.948 131.788 158.969C132.605 159.173 129.132 161.317 124.126 163.768C107.78 171.527 97.2574 181.431 92.8644 192.968C91.8428 195.827 90.9234 198.584 90.9234 199.094C90.9234 199.809 93.7839 199.911 98.8919 199.502C105.737 198.992 109.312 199.4 127.701 203.28C146.397 207.262 150.075 207.67 162.436 207.772C178.68 207.772 186.955 205.833 201.768 198.584C217.092 191.028 243.143 169.996 243.143 165.197C243.143 163.972 240.487 160.603 236.809 157.131C229.454 150.29 230.475 149.269 239.057 155.089C242.326 157.233 247.332 159.888 250.193 160.909C253.053 161.93 255.403 162.951 255.403 163.257C255.403 163.665 253.155 165.299 250.499 167.137C241.713 173.059 221.587 187.761 217.297 191.539C214.947 193.479 211.678 197.052 210.145 199.4C207.489 203.28 207.285 204.199 207.796 209.814C210.043 232.787 234.868 250.348 262.963 248.919C274.609 248.306 283.191 244.732 291.159 237.279C298.31 230.643 305.462 214.715 305.462 205.526C305.462 200.319 302.499 197.256 268.786 167.647C267.356 166.32 266.64 165.401 267.253 165.605C267.969 165.81 273.281 170.2 279.206 175.509C298.515 192.56 309.957 199.809 322.012 202.667C338.562 206.445 351.741 205.628 375.953 199.605C383.513 197.665 395.057 195.214 401.493 193.989C407.929 192.764 413.446 191.539 413.65 191.334C414.365 190.62 402.617 176.02 397.611 171.323C394.853 168.77 389.847 164.584 386.373 162.032L380.141 157.437L386.475 155.089C391.788 153.047 394.648 152.639 403.536 152.741C412.527 152.741 416.715 153.456 429.077 156.723C468 166.933 479.851 168.566 497.116 166.014C503.246 165.095 510.908 164.38 514.177 164.38C517.344 164.38 520 163.972 520 163.359C520 161.93 511.725 162.134 501.1 163.87C482.507 166.933 470.452 165.605 435.819 156.825C405.477 149.065 397.202 148.657 383.411 154.374L378.098 156.519L372.071 153.864C368.699 152.332 364.511 150.801 362.774 150.495C361.037 150.086 359.607 149.474 359.607 149.167C359.607 148.759 362.161 147.33 365.226 146.104C388.927 136.303 407.623 113.33 415.387 84.2321C416.715 79.2292 417.839 74.941 417.839 74.7368C417.839 74.6347 415.285 74.5326 412.118 74.5326C399.041 74.5326 376.259 80.9649 359.198 89.5413C354.295 91.9916 350.004 93.8294 349.8 93.6252C349.595 93.421 350.004 91.6853 350.821 89.7455C354.499 80.8628 355.623 70.4487 355.623 45.5364C355.521 32.0592 355.316 20.8283 355.01 20.6241C354.499 20.1136 346.428 26.1375 335.088 35.5306C331.411 38.5936 322.829 46.4553 315.984 53.1938L303.623 65.2416L303.01 57.3799C301.988 44.8217 299.434 32.876 296.063 24.7081C292.896 17.0506 282.271 0 280.739 0C280.33 0 277.776 2.75668 275.018 6.22807ZM286.153 9.90366C295.961 24.9123 299.945 37.3684 301.069 56.8694C301.375 63.1996 301.886 68.4067 302.193 68.4067C302.499 68.4067 309.037 62.2807 316.597 54.8274C324.259 47.3742 335.599 37.1642 341.729 32.2634L352.967 23.2787L353.886 40.4314C355.214 64.4248 353.069 82.088 347.348 94.1357C346.633 95.7693 344.079 98.1176 341.729 99.547C332.739 104.754 319.764 116.087 311.489 125.889C304.849 133.75 304.849 135.894 311.387 132.219C325.587 123.949 337.745 113.126 344.283 102.814C347.45 97.7092 348.676 96.7903 359.096 91.5833C377.587 82.3943 395.363 76.983 409.666 76.3704C415.081 76.1662 415.285 76.2683 414.876 78.7187C414.059 84.5384 409.155 98.2197 404.864 106.388C395.976 123.336 384.841 134.261 367.882 142.735L358.279 147.534L342.24 147.227C324.566 146.819 306.79 148.248 292.487 151.107C287.277 152.128 281.862 152.639 280.432 152.332C278.083 151.618 278.389 151.414 283.804 148.555C291.568 144.573 305.155 130.892 308.731 123.54C312.817 114.964 314.043 107.102 312.715 97.505C310.263 80.1481 301.069 68.3046 289.933 68.4067C287.073 68.4067 286.358 69.0193 284.825 72.2864C280.33 81.9859 272.362 88.1119 249.988 98.9344C240.385 103.631 235.686 106.592 231.906 110.37L226.798 115.475L223.324 110.063C212.086 92.4 205.344 72.5927 205.344 57.2778C205.446 45.7406 211.78 25.4228 214.743 27.1585C229.454 35.8369 245.8 51.5602 251.623 62.8933C252.542 64.7311 253.768 70.4487 254.381 75.6557C255.709 86.8867 257.139 92.1958 258.774 91.5833C261.43 90.7664 260.715 80.9649 257.344 71.2654C254.381 62.587 254.177 61.1576 254.585 51.0497C254.892 41.3503 255.198 39.6146 258.161 33.6928C260.919 28.0774 279.411 2.04199 280.637 2.04199C280.841 2.04199 283.293 5.61548 286.153 9.90366ZM169.383 26.1375C174.695 28.7921 178.986 31.9571 184.809 37.5726C191.654 44.4133 202.075 57.7883 201.053 58.6051C200.951 58.8093 197.784 60.4429 194.208 62.3828C173.367 73.3074 169.281 88.4182 182.051 106.898C183.89 109.655 189.509 116.087 194.617 121.396C202.994 130.177 203.403 130.789 198.806 127.624C191.756 122.928 179.395 110.982 173.878 103.631C167.238 94.7483 162.334 89.8475 160.189 89.8475C159.065 89.8475 157.839 88.7245 157.226 86.9888C152.527 74.7368 150.483 56.3589 152.118 39.9209C153.855 21.3388 153.752 21.543 158.248 22.1556C160.291 22.3598 165.297 24.1976 169.383 26.1375ZM204.322 64.7311C204.322 74.7368 211.78 94.5441 221.281 109.757C225.367 116.189 226.287 118.435 225.674 120.477C224.448 124.663 224.652 130.892 226.185 136.813C227.002 139.876 227.615 142.531 227.513 142.633C227.411 142.735 224.039 141.306 220.157 139.468C203.403 131.708 178.782 104.346 176.33 90.8685C175.308 84.8447 178.067 77.6977 183.583 72.2864C188.794 67.2836 201.973 58.9114 203.505 59.8303C203.914 60.1366 204.322 62.3828 204.322 64.7311ZM296.267 71.6738C305.973 76.5746 311.081 87.9077 311.081 104.652C311.081 114.249 310.876 115.372 307.709 121.703C303.418 130.483 296.063 138.549 286.46 144.879C277.265 151.005 274.405 151.72 263.065 150.086L254.279 148.861L245.697 138.957C236.299 128.237 228.841 118.538 228.841 117.21C228.841 116.7 230.68 114.351 233.029 111.799C236.196 108.328 241.305 105.162 254.177 98.6281C273.179 88.9287 280.432 83.4153 285.234 74.941C288.707 68.713 289.729 68.4067 296.267 71.6738ZM258.365 81.067C258.978 84.3342 259.183 87.4993 258.774 88.214C257.957 89.4392 256.527 83.109 256.527 77.6977C256.424 72.7969 257.037 74.0221 258.365 81.067ZM101.957 80.7607C108.291 83.5174 118.405 87.6014 124.432 89.6434C134.444 93.0126 136.385 93.3189 146.703 93.421H158.043L161.517 99.8533C169.996 115.679 190.02 131.708 210.963 139.366C216.582 141.51 225.061 147.738 224.141 149.167C223.835 149.678 222.507 150.086 221.179 150.086C219.749 150.086 213.925 151.924 208.204 154.068C195.741 158.765 187.67 160.5 181.029 159.684C172.857 158.663 172.857 158.152 181.336 155.804C191.859 152.945 204.322 148.146 204.322 146.921C204.322 146.411 203.709 146.002 203.096 146.002C199.316 146.002 173.265 149.372 167.238 150.699C163.356 151.516 158.963 152.128 157.43 152.128C151.403 152.128 121.674 132.934 107.065 119.559C90.0039 104.039 81.0138 85.6615 86.8369 78.3103C88.0629 76.7788 89.391 75.5536 89.6974 75.5536C90.1061 75.5536 95.6228 77.9019 101.957 80.7607ZM165.092 95.1567C166.829 96.9945 170.2 101.181 172.55 104.448C180.825 115.781 195.843 128.952 206.672 134.363C211.882 137.12 213.108 138.447 208.715 136.711C195.23 131.606 177.862 119.354 170.098 109.451C165.705 103.937 159.371 93.9315 159.371 92.5021C159.371 90.8685 162.334 92.1958 165.092 95.1567ZM342.24 103.12C338.971 109.246 325.485 121.396 313.43 129.156C304.134 135.078 318.947 118.64 331.921 108.634C342.138 100.772 344.079 99.7512 342.24 103.12ZM242.428 137.528C248.66 144.879 250.806 148.044 249.58 148.044C247.945 148.044 244.88 147.432 232.212 144.471C230.475 144.062 229.556 142.633 228.33 138.651C226.695 133.138 226.287 122.417 227.615 121.09C228.024 120.682 229.454 121.805 230.884 123.642C232.314 125.582 237.525 131.81 242.428 137.528ZM230.578 146.921C232.825 149.984 227.921 149.576 224.857 146.513L222.2 143.756L225.776 144.471C227.717 144.879 229.862 146.002 230.578 146.921ZM237.014 149.882C236.299 150.188 235.073 149.576 234.153 148.555C232.519 147.023 232.621 146.921 235.379 148.146C236.912 148.861 237.729 149.678 237.014 149.882ZM193.084 150.188C187.363 152.741 173.367 156.416 169.179 156.416C167.442 156.519 164.684 155.906 162.947 155.191C159.882 153.864 159.882 153.864 167.033 152.435C174.185 151.005 193.289 148.248 196.149 148.248C196.967 148.248 195.639 149.065 193.084 150.188ZM248.558 149.576C251.521 150.086 254.075 151.209 255.505 152.741C257.65 155.089 257.65 155.191 255.811 155.191C253.564 155.191 241.1 149.474 241.1 148.453C241.1 148.146 241.713 148.044 242.53 148.351C243.246 148.657 246.004 149.167 248.558 149.576ZM345.305 148.963L349.902 149.678L344.283 150.903C341.218 151.618 335.191 152.537 331.002 153.149C321.297 154.374 293.202 154.477 293.202 153.251C293.202 152.128 307.096 150.086 321.807 149.065C337.642 148.044 339.992 148.044 345.305 148.963ZM361.344 151.618C370.334 154.272 374.523 156.314 372.888 157.233C368.291 159.684 329.776 164.789 307.505 165.912C284.417 167.137 263.167 164.176 267.151 160.398C267.764 159.888 271.851 158.356 276.346 157.029C284.11 154.579 285.132 154.579 297.8 155.498C313.328 156.723 334.68 155.191 345.815 152.23C355.01 149.78 355.214 149.78 361.344 151.618ZM234.562 157.437C238.138 160.807 241.1 164.38 241.1 165.299C241.1 169.894 216.275 189.395 200.747 197.052C185.729 204.505 175.717 206.649 158.35 205.935C147.725 205.526 141.493 204.607 131.277 202.157C121.878 199.911 114.318 198.788 105.43 198.379C91.2299 197.665 91.6385 198.277 96.8487 188.68C101.855 179.185 114.318 169.485 129.745 162.951C136.181 160.296 137.202 160.194 154.263 160.092C164.071 160.092 176.534 160.398 181.949 160.807C191.45 161.521 191.859 161.521 202.381 157.744C226.287 149.269 226.083 149.269 234.562 157.437ZM266.436 152.128C269.807 152.128 268.786 153.149 264.189 154.17C261.226 154.783 260.306 154.579 258.774 152.843C256.935 150.801 256.935 150.801 260.409 151.414C262.248 151.822 265.006 152.128 266.436 152.128ZM244.267 153.762C250.703 155.702 259.387 160.5 257.548 161.113C255.811 161.726 247.639 158.458 242.122 155.089C236.707 151.72 236.912 151.618 244.267 153.762ZM277.265 153.864C277.674 154.272 274.916 155.702 271.136 156.927C266.538 158.458 263.882 158.969 263.167 158.254C261.839 156.927 262.248 156.723 268.173 154.885C274.098 153.149 276.244 152.843 277.265 153.864ZM160.699 155.906C165.092 157.233 161.721 158.254 153.548 158.152L144.558 158.05L150.177 156.212C153.242 155.191 156.511 154.579 157.328 154.885C158.145 155.191 159.678 155.702 160.699 155.906ZM261.022 158.254C262.452 159.786 262.554 160.296 261.43 160.296C259.898 160.194 256.424 157.948 256.424 156.825C256.424 155.498 259.285 156.314 261.022 158.254ZM383.921 162.338C387.293 164.584 392.809 169.077 396.079 172.344C402.208 178.266 410.688 188.476 410.688 189.803C410.688 190.313 407.316 191.13 403.332 191.845C399.246 192.56 388.519 194.806 379.529 197.052C370.538 199.196 360.424 201.442 357.155 202.055C343.159 204.607 322.114 202.463 312 197.563C304.747 193.989 292.283 185.004 281.658 175.611C276.857 171.425 272.872 167.749 272.872 167.443C272.77 167.137 284.621 166.933 299.128 166.933C327.018 166.933 339.89 165.707 363.694 160.909C370.13 159.582 375.953 158.458 376.566 158.356C377.281 158.356 380.55 160.092 383.921 162.338ZM281.25 180.818C291.466 189.905 300.66 198.277 301.58 199.502C306.79 205.833 299.536 227.988 289.32 236.973C274.916 249.633 253.666 251.267 233.54 241.261C219.136 234.012 210.656 222.679 209.635 209.406L209.124 202.361L213.619 197.46C221.894 188.476 255.811 164.38 260.306 164.38C261.941 164.38 268.377 169.383 281.25 180.818Z" fill="#1E1E1E"/>
</svg>
